<svg xmlns="http://www.w3.org/2000/svg" xlink="http://www.w3.org/1999/xlink" width="0" height="0" style="display:none;"><symbol id="iconfont-svg-icon"><defs><style type="text/css"/></defs><path d="M459.33 160.47a26.39 26.39 0 0 0-37.26 0L203.19 379.35a14.17 14.17 0 1 0 20.05 20L440.7 181.93l217.47 217.46a14.17 14.17 0 1 0 20-20zM653.55 408.58H225.38A26.37 26.37 0 0 0 199 434.92v320.8a26.38 26.38 0 0 0 26.34 26.35h99a52.49 52.49 0 0 0 52.43-52.43v-111.8a16.94 16.94 0 0 1 16.92-16.92h105.17a23.72 23.72 0 0 1 23.69 23.69v18.58a14.18 14.18 0 1 0 28.35 0v-18.58a52.11 52.11 0 0 0-52-52H393.73a45.32 45.32 0 0 0-45.27 45.27v111.8a24.1 24.1 0 0 1-24.08 24.08h-97V436.93h424.17v316.79H540.21a14.18 14.18 0 0 0 0 28.35h113.34a26.37 26.37 0 0 0 26.34-26.35v-320.8a26.37 26.37 0 0 0-26.34-26.34zM501.28 181.11h127.27a43.87 43.87 0 0 1 35.73 18.48l0.13 0.18 150.16 198.16a14.18 14.18 0 0 0 22.6-17.12L687.27 183a72.27 72.27 0 0 0-58.72-30.23H501.28a14.17 14.17 0 1 0 0 28.34zM800.41 408.58h-86a14.18 14.18 0 0 0 0 28.35h86a13.68 13.68 0 0 1 13.66 13.66v289.47a13.68 13.68 0 0 1-13.66 13.66h-85.94a14.18 14.18 0 1 0 0 28.35h85.94a42.05 42.05 0 0 0 42-42V450.59a42.05 42.05 0 0 0-42-42.01z" fill="#4A4A4A" p-id="802"/></symbol></svg>