<?xml version="1.0" standalone="no"?>
<!DOCTYPE svg PUBLIC "-//W3C//DTD SVG 1.1//EN" "http://www.w3.org/Graphics/SVG/1.1/DTD/svg11.dtd">
<svg xmlns="http://www.w3.org/2000/svg" xmlns:xlink="http://www.w3.org/1999/xlink" width="16" height="16" class="icon" p-id="1619" t="1561028792211" version="1.1" viewBox="0 0 1024 1024">
    <defs>
        <style type="text/css"/>
    </defs>
    <path fill="#FF6F56" d="M740.37248 167.64928c153.27232 76.4928 257.59744 227.61472 257.59744 401.53088C997.96992 820.40832 780.3904 1024 512.02048 1024c-268.43136 0-485.9904-203.59168-485.9904-454.81984 0-151.42912 84.1728-291.08224 205.80352-373.73952l253.89056 19.61984 254.64832-47.4112z" p-id="1620"/>
    <path fill="#F94E41" d="M740.37248 167.64928l-254.64832 47.43168h89.86624c153.27232 76.51328 257.59744 227.6352 257.59744 401.57184 0 175.84128-106.82368 328.06912-262.81984 403.74272 240.82432-27.01312 427.60192-218.54208 427.60192-451.21536 0-173.91616-104.30464-325.03808-257.59744-401.53088z" p-id="1621"/>
    <path fill="#9FE283" d="M233.04192 193.98656L359.09632 172.032c-19.57888-43.8272-37.74464-84.43904-55.84896-125.07136 3.3792-3.21536 6.88128-6.4512 10.3424-9.64608 13.824 9.68704 28.2624 18.61632 41.39008 29.14304 95.9488 76.84096 155.19744 65.24928 231.8336-33.40288 6.08256-7.8848 13.57824-14.70464 30.74048-33.05472 0 35.49184 1.69984 57.77408-0.45056 79.64672-2.33472 23.2448-8.31488 46.10048-14.80704 80.40448l191.22176-18.39104 4.83328 9.19552c-51.38432 23.81824-101.4784 51.17952-154.60352 70.26688-38.62528 13.84448-74.97728 23.7568-95.88736 64.43008-19.00544 36.90496-46.30528 42.10688-79.44192 11.69408-36.12672-33.23904-77.70112-54.1696-128.69632-59.96544-37.13024-4.28032-72.78592-21.05344-109.11744-32.256 0.83968-3.70688 1.61792-7.41376 2.43712-11.03872z" p-id="1622"/>
    <path fill="#6CB23F" d="M530.04288 133.69344c-2.31424 23.26528-8.31488 46.10048-14.82752 80.40448 65.86368-6.3488 127.22176-12.26752 188.5184-18.14528 31.66208-14.60224 62.95552-30.45376 94.6176-45.11744l-4.83328-9.19552-191.22176 18.39104c6.47168-34.304 12.45184-57.15968 14.80704-80.40448 2.1504-21.85216 0.45056-44.1344 0.45056-79.62624-17.16224 18.35008-24.65792 25.16992-30.74048 33.05472-19.43552 25.00608-37.76512 44.42112-55.86944 58.22464 0.26624 15.91296 0.38912 29.47072-0.90112 42.41408z" p-id="1623"/>
</svg>
