<?xml version="1.0" standalone="no"?><!DOCTYPE svg PUBLIC "-//W3C//DTD SVG 1.1//EN" "http://www.w3.org/Graphics/SVG/1.1/DTD/svg11.dtd"><svg t="1560153576774" class="icon" style="" viewBox="0 0 1024 1024" version="1.1" xmlns="http://www.w3.org/2000/svg" p-id="833" xmlns:xlink="http://www.w3.org/1999/xlink" width="16" height="16"><defs><style type="text/css"></style></defs><path d="M892.44 348.62c-14.34-70.23-74.19-119.2-147.89-119.2-5.44 0-12.86 1.98-19.78 1.98-55.89 7.42-108.32 55.89-119.2 108.32-1.98 10.88 7.42 28.69 16.32 34.13 3.46 1.98 8.9 3.46 12.86 3.46 8.9 0 17.81-7.42 23.25-19.78 1.98-3.46 1.98-5.44 3.46-8.9 0-3.46 1.98-7.42 3.46-10.88 14.34-32.64 46.99-52.43 83.09-52.43 12.86 0 23.25 3.46 34.13 7.42 45.01 17.81 68.75 68.75 53.91 113.76-12.86 41.55-48.97 64.79-99.42 64.79H137.66c-5.44 0-12.86 0-17.81 3.46-7.42 5.44-16.32 18.3-16.32 27.2 0 10.88 12.86 19.78 19.78 23.25 5.44 1.98 8.9 1.98 12.86 1.98 3.46 0 5.44 0 5.44-3.46h590.07c16.32 0 32.64 0 48.97-3.46 79.14-18.31 126.13-92.5 111.79-171.64zM610.51 613.73H137.66c-5.44 0-10.88 0-16.32 3.46-7.42 5.44-16.32 16.32-16.32 25.23s10.88 19.78 17.81 23.25c5.44 3.46 10.88 3.46 14.34 3.46h433.28c17.81 0 41.55 0 63.31 1.98 19.78 1.98 38.09 12.86 48.97 28.69 12.86 16.32 16.32 36.11 10.88 55.89-8.9 30.67-28.69 48.97-57.87 52.43h-12.86c-25.23 0-45.01-12.86-59.35-36.11-5.44-10.88-14.34-21.76-27.2-21.76-5.44 0-10.88 1.98-16.32 5.44-23.25 14.34-10.88 36.11-5.44 45.01 21.76 39.57 64.79 63.31 110.3 63.31 16.32 0 30.67-1.98 45.01-5.44 55.89-19.78 90.02-79.63 79.63-138.99-12.38-65.79-62.83-105.85-139-105.85z" fill="#ABFFCD" p-id="834"></path><path d="M139.63 384.73h153.33c12.86 0 70.23 0 85.07-1.98h57.87c66.28-1.48 120.69-53.91 122.66-122.66 1.98-66.77-48.97-124.64-117.22-130.08h-8.9c-48.97 0-95.46 30.67-111.78 72.21-3.46 8.9 0 28.69 8.9 36.11 3.46 5.44 8.9 7.42 14.34 7.42 7.42 0 16.32-5.44 23.25-14.34 1.98-1.98 3.46-5.44 5.44-7.42s3.46-5.44 5.44-7.42c12.86-17.81 34.13-28.69 55.89-28.69 5.44 0 10.88 0 16.32 1.98 36.11 10.88 55.89 41.55 52.43 77.65-5.44 36.11-34.13 61.33-70.23 61.33H145.57c-16.32 0-41.55 0-41.55 28.69 0 7.42 1.98 14.34 7.42 19.78 6.43 7.42 17.31 7.42 28.19 7.42z" fill="#ABFFCD" p-id="835"></path></svg>
